<?xml version="1.0" encoding="UTF-8" standalone="no"?>
<!DOCTYPE svg PUBLIC "-//W3C//DTD SVG 1.1//EN" "http://www.w3.org/Graphics/SVG/1.1/DTD/svg11.dtd">
<svg width="100%" height="100%" viewBox="0 0 1735 225" version="1.1" xmlns="http://www.w3.org/2000/svg" xmlns:xlink="http://www.w3.org/1999/xlink" xml:space="preserve" xmlns:serif="http://www.serif.com/" style="fill-rule:evenodd;clip-rule:evenodd;stroke-linejoin:round;stroke-miterlimit:2;">
    <g transform="matrix(1,0,0,1,-1568.73,-1351.94)">
        <g transform="matrix(1,0,0,1,1349,-138)">
            <g transform="matrix(6.19839,0,0,6.19839,-10374.6,-4790.74)">
                <path d="M1749.1,1048.29L1741.31,1048.29L1741.31,1027.34C1741.31,1025.08 1741.41,1022.58 1741.6,1019.84L1741.41,1019.84C1741,1021.99 1740.63,1023.54 1740.31,1024.48L1732.1,1048.29L1725.66,1048.29L1717.31,1024.73C1717.08,1024.09 1716.72,1022.47 1716.21,1019.84L1715.99,1019.84C1716.2,1023.3 1716.31,1026.32 1716.31,1028.93L1716.31,1048.29L1709.2,1048.29L1709.2,1013.28L1720.75,1013.28L1727.9,1034.03C1728.48,1035.69 1728.89,1037.36 1729.15,1039.03L1729.3,1039.03C1729.74,1037.1 1730.2,1035.41 1730.69,1033.98L1737.84,1013.28L1749.1,1013.28L1749.1,1048.29Z" style="fill:white;fill-rule:nonzero;"/>
            </g>
        </g>
        <g transform="matrix(1,0,0,1,1349,-138)">
            <g transform="matrix(6.19839,0,0,6.19839,-10374.6,-4790.74)">
                <path d="M1808.25,1019.7L1798.27,1019.7L1798.27,1048.29L1790.36,1048.29L1790.36,1019.7L1780.42,1019.7L1780.42,1013.28L1808.25,1013.28L1808.25,1019.7Z" style="fill:white;fill-rule:nonzero;"/>
            </g>
        </g>
        <g transform="matrix(1,0,0,1,1349,-138)">
            <g transform="matrix(6.19839,0,0,6.19839,-10374.6,-4790.74)">
                <path d="M1868.97,1048.29L1848.12,1048.29L1848.12,1013.28L1856.01,1013.28L1856.01,1041.89L1868.97,1041.89L1868.97,1048.29Z" style="fill:white;fill-rule:nonzero;"/>
            </g>
        </g>
        <g transform="matrix(1,0,0,1,1349,-138)">
            <g transform="matrix(6.19839,0,0,6.19839,-10374.6,-4790.74)">
                <path d="M1894.53,1048.29L1873.68,1048.29L1873.68,1013.28L1881.57,1013.28L1881.57,1041.89L1894.53,1041.89L1894.53,1048.29Z" style="fill:white;fill-rule:nonzero;"/>
            </g>
        </g>
        <g transform="matrix(1,0,0,1,1349,-138)">
            <g transform="matrix(6.19839,0,0,6.19839,-10374.6,-4790.74)">
                <path d="M1910.06,1013.28L1910.06,1019.38L1907.13,1019.38L1907.13,1042.18L1910.06,1042.18L1910.06,1048.29L1896.31,1048.29L1896.31,1042.18L1899.24,1042.18L1899.24,1019.38L1896.31,1019.38L1896.31,1013.28L1910.06,1013.28Z" style="fill:white;fill-rule:nonzero;"/>
            </g>
        </g>
        <g transform="matrix(1,0,0,1,1349,-138)">
            <g transform="matrix(6.19839,0,0,6.19839,-9070.59,-4787.11)">
                <text x="1705.2px" y="1048.29px" style="font-family:'Ebrima-Bold', 'Ebrima';font-weight:700;font-size:50px;fill:rgb(10,169,0);">ON</text>
            </g>
        </g>
        <g transform="matrix(1,0,0,1,1349,-138)">
            <g transform="matrix(1,0,0,1,-1349,138)">
                <path d="M1991,1529.3L1995.47,1529.3L1995.47,1568.95L1865.33,1568.95L1865.33,1529.81L1991,1529.81L1991,1529.3ZM1914.21,1440L1914.21,1440.02L1991,1440.02L1991,1478.81L1865.33,1478.81L1865.33,1440L1914.21,1440ZM1865.33,1392L1865.33,1351.94L1990.48,1351.94L1990.48,1391.74L1914.21,1391.74L1914.21,1392L1865.33,1392Z" style="fill:white;fill-rule:nonzero;"/>
            </g>
        </g>
        <g transform="matrix(1,0,0,1,1349,-138)">
            <g transform="matrix(1,0,0,1,-1349,138)">
                <path d="M2240.88,1568.95L2188.57,1568.95L2267.56,1351.94L2325.52,1351.94L2402.7,1568.95L2349.43,1568.95L2299.49,1410.2C2297.77,1404.76 2296.56,1398.25 2295.86,1390.68L2294.65,1390.68C2294.14,1397.04 2292.88,1403.34 2290.86,1409.6L2240.88,1568.95Z" style="fill:white;fill-rule:nonzero;"/>
            </g>
        </g>
    </g>
</svg>
